<svg width="500" height="500" viewBox="0 0 500 500" fill="none" xmlns="http://www.w3.org/2000/svg">
<g clip-path="url(#clip0_56_102)">
<path d="M451.714 406.691H71.5441C66.6841 406.68 62.0247 402.846 58.5882 396.029C55.1516 389.212 53.2186 379.969 53.2131 370.328V84.167C53.2186 74.5263 55.1517 65.2836 58.5882 58.4665C62.0248 51.6495 66.6841 47.8149 71.5441 47.804H451.714C456.574 47.8149 461.233 51.6495 464.67 58.4665C468.106 65.2836 470.039 74.5263 470.045 84.167V370.328C470.039 379.969 468.106 389.212 464.67 396.029C461.233 402.846 456.574 406.68 451.714 406.691Z" fill="white"/>
<path d="M451.714 406.691H71.5441C66.6841 406.68 62.0247 402.846 58.5882 396.029C55.1516 389.212 53.2186 379.969 53.2131 370.328V84.167C53.2186 74.5263 55.1517 65.2836 58.5882 58.4665C62.0248 51.6495 66.6841 47.8149 71.5441 47.804H451.714C456.574 47.8149 461.233 51.6495 464.67 58.4665C468.106 65.2836 470.039 74.5263 470.045 84.167V370.328C470.039 379.969 468.106 389.212 464.67 396.029C461.233 402.846 456.574 406.68 451.714 406.691ZM71.5441 50.9659C67.1052 50.9659 62.8481 54.4639 59.7093 60.6903C56.5705 66.9167 54.8071 75.3615 54.8071 84.167V370.328C54.8071 374.688 55.24 379.006 56.0811 383.034C56.9222 387.062 58.1551 390.722 59.7093 393.805C61.2634 396.888 63.1085 399.334 65.1392 401.002C67.1698 402.671 69.3462 403.529 71.5441 403.529H451.714C453.912 403.529 456.088 402.671 458.119 401.002C460.149 399.334 461.995 396.888 463.549 393.805C465.103 390.722 466.336 387.062 467.177 383.034C468.018 379.006 468.451 374.688 468.451 370.328V262.43C468.451 206.346 457.22 152.56 437.228 112.902C417.236 73.2452 390.122 50.966 361.849 50.9659H71.5441Z" fill="#E6E6E6"/>
<path d="M41.4634 467.611C41.6189 465.491 40.4997 463.413 38.9636 462.97C37.4275 462.526 36.0562 463.885 35.9007 466.005C35.7452 468.125 36.8645 470.203 38.4006 470.646C39.9366 471.089 41.3079 469.73 41.4634 467.611Z" fill="white"/>
<path d="M59.7523 464.071C59.9078 461.951 58.7886 459.873 57.2525 459.43C55.7164 458.986 54.3451 460.345 54.1896 462.465C54.0341 464.585 55.1534 466.663 56.6895 467.106C58.2256 467.549 59.5968 466.19 59.7523 464.071Z" fill="#3F3D56"/>
<path d="M36.4554 438.24C36.6109 436.12 35.4916 434.042 33.9556 433.599C32.4195 433.155 31.0482 434.514 30.8927 436.634C30.7372 438.754 31.8564 440.832 33.3925 441.275C34.9286 441.718 36.2999 440.359 36.4554 438.24Z" fill="#FF6584"/>
<path d="M28.5084 426.209C28.5158 424.263 27.9686 422.677 27.2861 422.667C26.6037 422.656 26.0445 424.226 26.0371 426.172C26.0296 428.118 26.5768 429.704 27.2593 429.714C27.9417 429.724 28.501 428.155 28.5084 426.209Z" fill="#E6E6E6"/>
<path d="M25.8134 403.8C25.8208 401.854 25.2736 400.268 24.5912 400.258C23.9087 400.248 23.3495 401.817 23.3421 403.763C23.3347 405.709 23.8819 407.295 24.5643 407.305C25.2467 407.315 25.806 405.746 25.8134 403.8Z" fill="#3F3D56"/>
<path d="M46.7705 443.238C46.7779 441.292 46.2307 439.706 45.5482 439.696C44.8658 439.685 44.3066 441.255 44.2991 443.201C44.2917 445.147 44.8389 446.733 45.5214 446.743C46.2038 446.753 46.763 445.184 46.7705 443.238Z" fill="#E6E6E6"/>
<path d="M37.9325 451.991C37.9399 450.045 37.3927 448.459 36.7102 448.449C36.0278 448.439 35.4686 450.008 35.4612 451.954C35.4537 453.9 36.0009 455.486 36.6834 455.496C37.3658 455.506 37.9251 453.937 37.9325 451.991Z" fill="#FF6584"/>
<path d="M50.2353 468.17C50.2427 466.224 49.6955 464.638 49.013 464.628C48.3306 464.617 47.7713 466.187 47.7639 468.133C47.7565 470.079 48.3037 471.665 48.9861 471.675C49.6686 471.685 50.2279 470.116 50.2353 468.17Z" fill="#3F3D56"/>
<path d="M483.303 10.6274C483.641 7.98062 482.361 5.05339 480.443 4.08918C478.525 3.12497 476.696 4.48891 476.358 7.13568C476.019 9.78246 477.3 12.7098 479.218 13.674C481.136 14.6382 482.965 13.2742 483.303 10.6274Z" fill="white"/>
<path d="M459.881 10.328C460.219 7.68121 458.938 4.7539 457.02 3.78969C455.102 2.82548 453.273 4.1895 452.935 6.83628C452.597 9.48306 453.877 12.4103 455.796 13.3745C457.714 14.3387 459.542 12.9748 459.881 10.328Z" fill="#3F3D56"/>
<path d="M487.699 49.176C488.037 46.5292 486.756 43.602 484.838 42.6377C482.92 41.6735 481.091 43.0375 480.753 45.6843C480.415 48.331 481.696 51.2583 483.614 52.2226C485.532 53.1868 487.361 51.8227 487.699 49.176Z" fill="#FF6584"/>
<path d="M493.159 63.7116C493.298 61.2464 492.709 59.0925 491.845 58.9009C490.98 58.7093 490.167 60.5524 490.028 63.0177C489.889 65.483 490.478 67.6368 491.342 67.8284C492.207 68.02 493.02 66.1769 493.159 63.7116Z" fill="#E6E6E6"/>
<path d="M495.088 92.8226C495.227 90.3573 494.639 88.2034 493.774 88.0118C492.91 87.8202 492.096 89.6633 491.957 92.1286C491.818 94.5939 492.407 96.7477 493.271 96.9394C494.136 97.131 494.949 95.2878 495.088 92.8226Z" fill="#3F3D56"/>
<path d="M471.138 37.341C471.277 34.8758 470.689 32.7219 469.825 32.5303C468.96 32.3387 468.147 34.1818 468.008 36.6471C467.869 39.1123 468.457 41.2662 469.322 41.4578C470.186 41.6494 471 39.8063 471.138 37.341Z" fill="#E6E6E6"/>
<path d="M482.926 28.5568C483.065 26.0915 482.476 23.9377 481.612 23.746C480.747 23.5544 479.934 25.3976 479.795 27.8628C479.656 30.3281 480.245 32.4819 481.109 32.6736C481.974 32.8652 482.787 31.022 482.926 28.5568Z" fill="#FF6584"/>
<path d="M468.404 4.82439C468.543 2.35912 467.955 0.205286 467.09 0.0136585C466.226 -0.177969 465.412 1.66518 465.274 4.13045C465.135 6.59572 465.723 8.74955 466.587 8.94118C467.452 9.13281 468.265 7.28966 468.404 4.82439Z" fill="#3F3D56"/>
<path d="M212 221.841C212.022 250.454 206.376 278.066 196.154 299.337V299.353C194.708 302.362 193.182 305.23 191.58 307.946C189.942 310.725 188.223 313.335 186.433 315.766C185.185 317.472 183.902 319.083 182.586 320.599C181.025 322.416 179.419 324.095 177.768 325.638C176.544 326.791 175.295 327.866 174.021 328.861C166.416 334.844 158.249 337.922 149.999 337.912C145.34 337.922 140.695 336.947 136.153 335.006C134.052 334.111 131.979 333.004 129.942 331.688C129.158 331.199 128.373 330.662 127.597 330.093C122.89 326.687 118.426 322.203 114.307 316.745C105.601 305.27 98.6205 289.791 94.0375 271.799C89.4545 253.808 87.4238 233.91 88.1408 214.022C88.8578 194.135 92.2984 174.929 98.1312 158.253C103.964 141.578 111.993 127.995 121.443 118.814C130.894 109.633 141.448 105.163 152.089 105.835C162.73 106.507 173.1 112.297 182.199 122.649C191.298 133.001 198.819 147.565 204.039 164.938C209.258 182.311 212 201.908 212 221.841Z" fill="#F2F2F2"/>
<path d="M380.55 135.067H279.331C278.486 135.065 277.677 134.397 277.08 133.212C276.483 132.026 276.148 130.419 276.148 128.743C276.148 127.068 276.483 125.46 277.08 124.275C277.677 123.089 278.486 122.422 279.331 122.419H380.55C381.396 122.419 382.207 123.086 382.804 124.271C383.402 125.457 383.738 127.066 383.738 128.743C383.738 130.42 383.402 132.029 382.804 133.215C382.207 134.401 381.396 135.067 380.55 135.067Z" fill="#3F3D56"/>
<path d="M380.55 220.441H279.331C278.486 220.439 277.677 219.771 277.08 218.586C276.483 217.4 276.148 215.793 276.148 214.117C276.148 212.442 276.483 210.835 277.08 209.649C277.677 208.463 278.486 207.796 279.331 207.793H380.55C381.395 207.796 382.205 208.463 382.801 209.649C383.398 210.835 383.734 212.442 383.734 214.117C383.734 215.793 383.398 217.4 382.801 218.586C382.205 219.771 381.395 220.439 380.55 220.441Z" fill="#E6E6E6"/>
<path d="M380.55 305.815H279.331C278.486 305.813 277.677 305.146 277.08 303.96C276.483 302.774 276.148 301.167 276.148 299.491C276.148 297.816 276.483 296.209 277.08 295.023C277.677 293.837 278.486 293.17 279.331 293.167H380.55C381.396 293.167 382.207 293.834 382.804 295.02C383.402 296.206 383.738 297.814 383.738 299.491C383.738 301.169 383.402 302.777 382.804 303.963C382.207 305.149 381.396 305.815 380.55 305.815Z" fill="#E6E6E6"/>
<path d="M127.497 494.478C116.07 464.328 109.465 430.613 109.249 392.174C108.881 390.103 108.942 387.826 109.419 385.844C109.896 383.862 110.75 382.336 111.793 381.601L150.742 354.263C151.786 353.533 152.934 353.654 153.933 354.6C154.932 355.546 155.702 357.24 156.072 359.31L174.32 461.614C174.688 463.686 174.627 465.962 174.15 467.944C173.673 469.927 172.819 471.453 171.776 472.188L132.827 499.525C131.783 500.255 130.635 500.134 129.636 499.188C128.637 498.242 127.867 496.548 127.497 494.478Z" fill="#E6E6E6"/>
<path d="M124.973 461.481C118.1 447.697 115.158 423.112 113.241 395.711C112.897 393.771 112.954 391.639 113.4 389.782C113.847 387.926 114.647 386.497 115.624 385.808L149.097 362.314C150.075 361.63 151.15 361.743 152.086 362.629C153.022 363.515 153.742 365.102 154.089 367.04L170.328 458.077C170.672 460.017 170.615 462.149 170.168 464.006C169.722 465.862 168.922 467.291 167.945 467.98L147.209 482.534C142.852 485.58 138.065 485.075 133.896 481.128C129.728 477.181 126.518 470.116 124.973 461.481Z" fill="white"/>
<path d="M154.537 416.082L128.463 434.545C128.257 434.691 128.039 434.754 127.821 434.733C127.604 434.711 127.39 434.605 127.193 434.419C126.996 434.234 126.819 433.974 126.672 433.653C126.526 433.332 126.413 432.957 126.34 432.55C126.266 432.142 126.234 431.71 126.245 431.278C126.256 430.845 126.31 430.422 126.403 430.031C126.496 429.64 126.628 429.289 126.79 428.998C126.951 428.708 127.14 428.484 127.346 428.338L153.421 409.875C153.835 409.581 154.292 409.627 154.69 410.001C155.089 410.375 155.395 411.048 155.543 411.871C155.692 412.694 155.669 413.6 155.48 414.39C155.291 415.18 154.952 415.788 154.537 416.082Z" fill="#3F3D56"/>
<path d="M131.137 413.464L125.4 417.526C125.195 417.672 124.977 417.736 124.759 417.715C124.541 417.693 124.327 417.587 124.129 417.402C123.932 417.217 123.755 416.956 123.609 416.635C123.462 416.314 123.349 415.939 123.276 415.531C123.202 415.123 123.17 414.691 123.181 414.258C123.192 413.826 123.246 413.402 123.339 413.011C123.433 412.619 123.564 412.269 123.726 411.978C123.888 411.688 124.078 411.464 124.283 411.319L130.02 407.257C130.225 407.111 130.443 407.047 130.661 407.068C130.879 407.089 131.093 407.195 131.29 407.381C131.488 407.566 131.665 407.826 131.811 408.147C131.958 408.468 132.071 408.844 132.144 409.251C132.218 409.659 132.25 410.092 132.239 410.524C132.228 410.957 132.174 411.381 132.08 411.772C131.987 412.163 131.855 412.514 131.693 412.804C131.531 413.095 131.342 413.319 131.137 413.464Z" fill="#3F3D56"/>
<path d="M159.448 443.369L133.373 461.832C132.958 462.125 132.502 462.079 132.104 461.705C131.706 461.33 131.399 460.658 131.251 459.836C131.103 459.013 131.126 458.108 131.314 457.318C131.503 456.529 131.841 455.92 132.256 455.625L158.331 437.163C158.745 436.87 159.202 436.916 159.6 437.29C159.997 437.664 160.304 438.337 160.452 439.159C160.6 439.982 160.577 440.887 160.389 441.677C160.201 442.466 159.862 443.075 159.448 443.369Z" fill="#3F3D56"/>
<path d="M156.993 429.726L130.918 448.189C130.503 448.483 130.046 448.437 129.648 448.063C129.25 447.689 128.943 447.016 128.795 446.193C128.647 445.37 128.669 444.464 128.858 443.674C129.047 442.884 129.386 442.276 129.801 441.982L155.876 423.519C156.081 423.373 156.299 423.309 156.517 423.33C156.735 423.351 156.949 423.457 157.146 423.643C157.344 423.828 157.521 424.089 157.667 424.41C157.814 424.731 157.927 425.106 158 425.513C158.074 425.921 158.106 426.354 158.095 426.786C158.084 427.219 158.03 427.643 157.936 428.034C157.843 428.425 157.711 428.776 157.549 429.066C157.387 429.357 157.198 429.581 156.993 429.726Z" fill="#3F3D56"/>
<path d="M133.315 168.866C134.164 182.456 138.911 193.661 145.815 193.661C149.13 193.661 152.309 191.048 154.653 186.398C156.997 181.748 158.314 175.442 158.314 168.866C158.314 155.172 152.688 145.337 145.815 144.071C138.521 142.727 132.225 151.418 133.315 168.866Z" fill="#2F2E41"/>
<path d="M156.696 335.905C149.043 338.515 141.204 338.101 133.631 334.687C137.226 330.75 148.129 333.169 156.696 335.905Z" fill="#2F2E41"/>
<path d="M108.047 379.518L114.051 350.734L118.782 355.948L115.925 385.228C116.211 387.083 116.23 389.059 115.981 390.935C115.732 392.811 115.224 394.512 114.515 395.847C113.805 397.181 112.922 398.097 111.964 398.49C111.006 398.883 110.012 398.739 109.094 398.073C108.175 397.408 107.369 396.247 106.764 394.721C106.16 393.196 105.783 391.367 105.674 389.439C105.565 387.511 105.729 385.561 106.149 383.808C106.568 382.056 107.225 380.57 108.047 379.518Z" fill="#FFB6B6"/>
<path d="M170.158 301.628V301.644C169.942 311.668 169.648 321.201 169.401 328.537C162.217 334.526 154.502 337.606 146.71 337.596C142.309 337.606 137.922 336.63 133.631 334.687C131.647 333.792 129.689 332.684 127.765 331.367C128.033 331.024 128.322 330.753 128.626 330.561C131.495 328.632 128.658 326.877 128.682 325.043C128.769 318.34 129.702 310.292 130.905 302.577L125.55 329.77L122.76 343.904C122.76 343.904 122.856 356.11 121.086 352.379C119.309 348.647 119.437 360.726 119.437 360.726C118.884 361.507 118.409 362.482 118.034 363.604C117.876 364.108 117.817 364.71 117.866 365.295V365.311C117.947 365.771 118.104 366.162 118.313 366.418C119.516 368.03 117.787 372.299 117.022 373.991C116.814 374.449 116.679 374.718 116.679 374.718L109.323 373.675V373.39C109.354 371.667 109.554 362.592 110.693 360.426C111.945 358.039 111.331 354.26 111.331 354.26C111.331 354.26 114.599 348.521 112.407 343.857C111.53 341.976 111.921 330.829 112.997 316.411C115.348 284.601 120.983 236.855 123.422 237.535C123.924 232.692 125.091 228.218 126.794 224.608C128.498 220.998 130.67 218.392 133.073 217.076L141.019 212.744L142.438 201.63H153.628L155.573 208.934L163.726 216.238L163.83 216.333L164.085 216.555L164.18 217.155C164.18 217.155 164.172 217.171 164.18 217.171L168.715 245.424C170.755 250.072 170.676 277.233 170.158 301.628Z" fill="#3F3D56"/>
<path d="M189.212 358.558L181.635 331.274L186.643 327.205L196.382 349.925C197.291 350.641 198.081 351.846 198.664 353.404C199.246 354.962 199.599 356.811 199.68 358.744C199.762 360.677 199.571 362.617 199.127 364.346C198.684 366.075 198.006 367.524 197.17 368.531C196.334 369.538 195.373 370.062 194.395 370.044C193.417 370.027 192.461 369.469 191.634 368.433C190.808 367.397 190.143 365.924 189.715 364.179C189.287 362.435 189.113 360.488 189.212 358.558Z" fill="#FFB6B6"/>
<path d="M163.727 216.021C165.075 220.825 177.402 233.18 175.265 245.584C175.265 245.584 186.845 317.452 188.351 316.983C189.857 316.514 191.327 323.937 191.327 323.937C191.327 323.937 191.007 328.782 191.947 326.769C192.886 324.755 192.661 330.033 192.661 330.033C192.661 330.033 192.211 334.691 193.404 333.425C194.596 332.159 193.028 341.073 193.028 341.073L185.861 347.767L184.5 343.746C184.5 343.746 181.589 342.647 182.959 341.776C184.328 340.905 181.671 337.974 181.671 337.974C181.671 337.974 178.891 334.227 179.279 328.02C179.666 321.814 172.065 309.613 172.065 309.613C166.84 289.149 163.982 268.138 163.992 246.465L163.727 216.021Z" fill="#3F3D56"/>
<path d="M147.196 195.133C153.318 195.133 158.28 185.289 158.28 173.146C158.28 161.003 153.318 151.159 147.196 151.159C141.075 151.159 136.112 161.003 136.112 173.146C136.112 185.289 141.075 195.133 147.196 195.133Z" fill="#FFB6B6"/>
<path d="M135.719 175.541C136.07 180.319 138.123 186.985 137.642 186.985C137.161 186.985 133.743 167.289 137.161 166.005C139.64 165.073 140.195 165.89 142.512 163.897L142.185 164.507C143.719 166.72 145.853 165.356 147.603 163.916C149.358 162.486 151.487 161.122 153.026 163.325C153.992 164.708 154.401 167.111 155.002 169.152C155.603 171.202 156.713 173.138 157.857 172.509C158.303 172.167 158.683 171.554 158.942 170.757C159.201 169.96 159.326 169.021 159.3 168.074C159.295 166.186 158.055 164.39 158.473 162.695C159.71 157.675 158.597 154.253 155.901 151.891C154.92 151.595 153.939 151.293 152.959 150.985C153.472 149.573 154.096 148.33 154.805 147.304C154.505 145.78 153.987 144.463 153.314 143.517C152.483 142.751 151.557 142.486 150.651 142.755C148.622 142.964 146.595 143.174 144.569 143.384C143.061 143.331 141.564 143.909 140.175 145.081C138.502 146.789 137.406 150.117 136.608 153.502C134.82 161.112 135.104 167.235 135.719 175.541Z" fill="#2F2E41"/>
<path d="M412.987 161.12H246.298C246.114 161.12 245.938 160.975 245.808 160.718C245.678 160.46 245.606 160.111 245.606 159.747C245.606 159.383 245.678 159.034 245.808 158.776C245.938 158.519 246.114 158.374 246.298 158.374H412.987C413.171 158.374 413.347 158.519 413.477 158.776C413.607 159.034 413.679 159.383 413.679 159.747C413.679 160.111 413.607 160.46 413.477 160.718C413.347 160.975 413.171 161.12 412.987 161.12Z" fill="#E6E6E6"/>
<path d="M412.987 246.239H246.298C246.114 246.239 245.938 246.094 245.808 245.837C245.678 245.579 245.606 245.23 245.606 244.866C245.606 244.502 245.678 244.153 245.808 243.895C245.938 243.638 246.114 243.493 246.298 243.493H412.987C413.171 243.493 413.347 243.638 413.477 243.895C413.607 244.153 413.679 244.502 413.679 244.866C413.679 245.23 413.607 245.579 413.477 245.837C413.347 246.094 413.171 246.239 412.987 246.239Z" fill="#E6E6E6"/>
<path d="M412.987 331.357H246.298C246.114 331.357 245.938 331.212 245.808 330.955C245.678 330.697 245.606 330.348 245.606 329.984C245.606 329.62 245.678 329.271 245.808 329.013C245.938 328.756 246.114 328.611 246.298 328.611H412.987C413.171 328.611 413.347 328.756 413.477 329.013C413.607 329.271 413.679 329.62 413.679 329.984C413.679 330.348 413.607 330.697 413.477 330.955C413.347 331.212 413.171 331.357 412.987 331.357Z" fill="#E6E6E6"/>
<path d="M437.798 325.915C431.695 325.915 425.794 321.592 421.156 313.724C419.609 311.097 417.96 306.53 416.256 300.151C415.169 296.041 414.56 291.501 414.474 286.863C414.388 282.225 414.828 277.608 415.76 273.352C414.861 275.166 413.867 276.783 412.795 278.177L412.253 278.892L412.221 277.603C412.201 276.764 412.191 275.928 412.191 275.118C412.191 270.346 414.01 265.503 413.171 261.092C409.634 242.5 398.416 224.023 414.674 195.249C416.178 192.587 414.169 187.266 414.169 183.238C414.169 143.771 442.289 75.4909 450.259 111.662C460.088 156.27 477.021 151.498 484.523 160.712L484.631 161.364L484.311 161.621C482.669 162.99 480.94 163.902 479.172 164.333C481.057 165.095 482.98 165.415 484.902 165.285L485.2 165.264L485.273 165.839C485.988 171.53 486.349 177.373 486.349 183.238L486.347 183.872C486.341 188.327 486.807 192.735 487.717 196.808C488.627 200.881 489.959 204.528 491.627 207.511C494.261 212.276 496.366 218.078 497.808 224.546C499.25 231.014 499.996 238.007 500 245.08C500 253.447 497.133 264.43 494.728 272.17C494.119 274.142 493.292 275.814 492.31 277.062C491.329 278.309 490.217 279.099 489.059 279.373C487.963 279.647 486.849 279.44 485.797 278.766C484.746 278.092 483.781 276.968 482.973 275.473C484.111 280.013 485.595 284.179 487.371 287.825L487.699 288.496L487.292 288.967C483.377 293.495 478.925 295.88 474.393 295.877L474.128 295.875C470.804 295.807 467.508 297.055 464.431 299.547C461.354 302.038 458.559 305.722 456.209 310.383C453.816 315.273 450.954 319.166 447.793 321.833C444.631 324.5 441.233 325.888 437.798 325.915Z" fill="#E6E6E6"/>
<path d="M428.988 406.358C428.877 406.358 428.77 406.278 428.686 406.134C428.603 405.99 428.548 405.791 428.532 405.573C427.328 384.271 427.256 362.777 428.318 341.445C429.907 307.793 435.012 259.323 450.303 219.515C450.339 219.419 450.385 219.339 450.437 219.279C450.49 219.219 450.547 219.179 450.607 219.163C450.667 219.147 450.728 219.155 450.787 219.185C450.845 219.216 450.9 219.269 450.948 219.342C450.996 219.415 451.036 219.505 451.067 219.609C451.097 219.713 451.117 219.827 451.125 219.946C451.133 220.065 451.13 220.186 451.114 220.302C451.099 220.418 451.072 220.527 451.035 220.622C435.876 260.086 430.813 308.201 429.235 341.615C428.179 362.805 428.249 384.156 429.444 405.316C429.454 405.445 429.449 405.577 429.43 405.703C429.411 405.828 429.379 405.945 429.336 406.043C429.293 406.142 429.239 406.221 429.179 406.276C429.119 406.33 429.054 406.358 428.988 406.358Z" fill="#3F3D56"/>
<path d="M441.466 275.666C441.369 275.666 441.274 275.605 441.195 275.492C441.117 275.378 441.058 275.219 441.028 275.035C440.998 274.852 440.998 274.654 441.028 274.47C441.058 274.287 441.116 274.127 441.195 274.013C445.552 268.163 450.259 263.41 455.207 259.864C462.938 254.249 474.694 249.16 486.796 256.8C486.854 256.837 486.907 256.895 486.953 256.973C487 257.05 487.038 257.145 487.065 257.251C487.093 257.358 487.11 257.474 487.115 257.593C487.12 257.713 487.114 257.833 487.095 257.948C487.077 258.062 487.047 258.168 487.008 258.26C486.969 258.351 486.922 258.427 486.868 258.482C486.814 258.537 486.756 258.571 486.695 258.581C486.635 258.591 486.574 258.577 486.517 258.541C474.662 251.057 463.12 256.063 455.524 261.58C450.655 265.065 446.024 269.738 441.736 275.491C441.658 275.605 441.563 275.666 441.466 275.666Z" fill="#3F3D56"/>
<path d="M420.389 171.532C420.382 171.34 420.406 171.148 420.457 170.984C420.508 170.82 420.585 170.692 420.675 170.62C420.765 170.547 420.864 170.532 420.959 170.579C421.053 170.625 421.138 170.729 421.2 170.877C424.456 179.076 427.185 188.046 429.324 197.581C432.704 212.472 436.109 235.365 433.139 259.86C433.125 259.977 433.1 260.088 433.064 260.185C433.029 260.282 432.984 260.365 432.932 260.428C432.881 260.491 432.823 260.533 432.763 260.551C432.704 260.57 432.642 260.565 432.583 260.537C432.525 260.509 432.469 260.458 432.42 260.388C432.371 260.317 432.33 260.228 432.298 260.125C432.267 260.023 432.245 259.909 432.236 259.79C432.227 259.671 432.229 259.55 432.244 259.433C435.153 235.44 431.805 212.963 428.484 198.331C426.381 188.949 423.698 180.123 420.496 172.054C420.434 171.907 420.396 171.724 420.389 171.532Z" fill="#3F3D56"/>
<path d="M43.7914 307.639C41.4413 302.978 38.6459 299.293 35.569 296.802C32.4921 294.311 29.1955 293.063 25.8723 293.131L25.6069 293.132C21.0747 293.136 16.6233 290.751 12.7081 286.222L12.3007 285.751L12.6288 285.081C14.4053 281.435 15.8887 277.269 17.027 272.728C16.2185 274.224 15.2543 275.348 14.2025 276.022C13.1508 276.696 12.0372 276.903 10.9406 276.629C9.78284 276.355 8.67139 275.565 7.68958 274.317C6.70777 273.07 5.8811 271.397 5.27159 269.426C2.86667 261.685 -3.05176e-05 250.702 -3.05176e-05 242.335C0.00371215 235.263 0.750191 228.27 2.19184 221.802C3.63348 215.334 5.73867 209.532 8.3732 204.767C10.0411 201.784 11.3733 198.137 12.283 194.064C13.1927 189.991 13.6594 185.583 13.6527 181.128L13.6514 180.494C13.6509 174.629 14.0123 168.786 14.7273 163.095L14.7999 162.52L15.098 162.54C17.0201 162.67 18.9433 162.351 20.8278 161.588C19.0602 161.158 17.3309 160.246 15.6891 158.877L15.3685 158.62L15.4773 157.968C22.979 148.754 39.9124 153.526 49.7411 108.918C57.7108 72.7466 85.8306 141.027 85.8306 180.494C85.8306 184.521 83.8215 189.843 85.3255 192.505C101.584 221.279 90.366 239.756 86.829 258.348C85.9898 262.759 87.8094 267.602 87.8094 272.374C87.8094 273.184 87.7991 274.02 87.7785 274.858L87.7472 276.148L87.205 275.432C86.1326 274.039 85.1385 272.421 84.2397 270.608C85.1722 274.864 85.6116 279.481 85.5257 284.119C85.4398 288.756 84.8308 293.297 83.7434 297.406C82.0396 303.786 80.3911 308.353 78.844 310.98C73.8879 319.393 67.4989 323.733 60.9834 323.112C54.4678 322.491 48.318 316.956 43.7914 307.639Z" fill="#E6E6E6"/>
<path d="M71.0122 403.614C71.123 403.613 71.23 403.534 71.3137 403.39C71.3973 403.246 71.4519 403.047 71.4675 402.829C72.6718 381.527 72.7438 360.033 71.6824 338.701C70.0929 305.049 64.9884 256.578 49.6974 216.77C49.6608 216.675 49.615 216.595 49.5627 216.535C49.5105 216.474 49.4527 216.435 49.3928 216.419C49.3328 216.403 49.2719 216.41 49.2134 216.441C49.155 216.472 49.1001 216.525 49.052 216.598C49.0039 216.67 48.9635 216.761 48.9331 216.865C48.9026 216.968 48.8828 217.083 48.8747 217.202C48.8667 217.321 48.8704 217.442 48.8859 217.558C48.9014 217.674 48.9282 217.782 48.9648 217.878C64.1237 257.342 69.1871 305.457 70.7653 338.871C71.821 360.06 71.7507 381.411 70.5557 402.571C70.5465 402.701 70.5514 402.833 70.5701 402.959C70.5888 403.084 70.6208 403.2 70.6641 403.299C70.7074 403.398 70.7609 403.477 70.8209 403.531C70.881 403.586 70.9462 403.614 71.0122 403.614Z" fill="#3F3D56"/>
<path d="M58.5339 272.921C58.6311 272.922 58.7259 272.861 58.8047 272.747C58.8834 272.634 58.942 272.474 58.9721 272.291C59.0022 272.107 59.0023 271.909 58.9722 271.726C58.9422 271.542 58.8837 271.382 58.805 271.269C54.4479 265.419 49.7411 260.666 44.7928 257.119C37.0621 251.505 25.3063 246.415 13.2039 254.056C13.1463 254.092 13.0929 254.151 13.0467 254.228C13.0004 254.305 12.9624 254.4 12.9346 254.507C12.9068 254.613 12.8899 254.73 12.8848 254.849C12.8797 254.969 12.8865 255.089 12.9048 255.203C12.9231 255.318 12.9526 255.424 12.9916 255.515C13.0306 255.607 13.0784 255.683 13.1321 255.738C13.1858 255.793 13.2444 255.826 13.3047 255.836C13.3649 255.847 13.4256 255.833 13.4832 255.797C25.3376 248.313 36.8803 253.319 44.4761 258.835C49.3449 262.321 53.9762 266.994 58.2635 272.747C58.342 272.86 58.4367 272.922 58.5339 272.921Z" fill="#3F3D56"/>
<path d="M79.6109 168.788C79.618 168.595 79.5942 168.403 79.5429 168.239C79.4916 168.075 79.4154 167.948 79.3253 167.875C79.2352 167.802 79.1358 167.788 79.0413 167.834C78.9469 167.88 78.8622 167.985 78.7995 168.132C75.5442 176.332 72.8155 185.302 70.676 194.837C67.2964 209.728 63.8906 232.621 66.8608 257.116C66.8748 257.233 66.9003 257.343 66.9358 257.441C66.9714 257.538 67.0162 257.62 67.0678 257.683C67.1194 257.746 67.1768 257.788 67.2367 257.807C67.2965 257.826 67.3576 257.821 67.4165 257.793C67.4754 257.765 67.5309 257.714 67.5799 257.643C67.6289 257.573 67.6703 257.483 67.7019 257.381C67.7334 257.278 67.7545 257.164 67.7638 257.046C67.7731 256.927 67.7705 256.806 67.7562 256.689C64.8471 232.696 68.1952 210.218 71.516 195.587C73.6191 186.205 76.3022 177.378 79.5037 169.31C79.5664 169.163 79.6039 168.98 79.6109 168.788Z" fill="#3F3D56"/>
</g>
<defs>
<clipPath id="clip0_56_102">
<rect width="500" height="500" fill="white"/>
</clipPath>
</defs>
</svg>
