<svg width="453" height="330" viewBox="0 0 453 330" fill="none" xmlns="http://www.w3.org/2000/svg">
<g clip-path="url(#clip0_13_2)">
<mask id="mask0_13_2" style="mask-type:luminance" maskUnits="userSpaceOnUse" x="0" y="0" width="453" height="330">
<path d="M453 0H0V330H453V0Z" fill="white"/>
</mask>
<g mask="url(#mask0_13_2)">
<path d="M263.872 58.1752C272.361 58.1752 279.244 51.2815 279.244 42.7778C279.244 34.2742 272.361 27.3805 263.872 27.3805C255.382 27.3805 248.499 34.2742 248.499 42.7778C248.499 51.2815 255.382 58.1752 263.872 58.1752Z" fill="white" fill-opacity="0.6"/>
<path d="M383.121 286.69C405.971 269.257 416.885 239.965 410.052 212.022C409.883 211.327 409.704 210.635 409.515 209.943C404.985 193.357 393.779 177.592 377.446 172.292C363.732 167.842 348.763 171.265 334.457 169.495C306.371 166.021 284.597 143.26 269.277 119.429C253.956 95.5982 242.182 68.923 221.823 49.2353C188.268 16.7833 133.528 9.7964 91.9227 30.9202C50.3173 52.044 23.8152 98.909 24.9455 145.616C26.0758 192.323 53.759 236.978 93.9617 260.67C108.731 269.373 125.812 275.54 142.812 273.382C157.562 271.51 170.964 263.572 185.645 261.215C208.728 257.508 231.663 267.962 251.627 280.143C271.59 292.323 290.874 306.762 313.561 312.408C335.59 317.892 362.88 302.132 383.121 286.69Z" fill="white" fill-opacity="0.6"/>
<path d="M0 250.44C5.00155 256.375 10.4113 261.953 16.1897 267.133L436.81 267.71C442.589 262.53 447.999 256.952 453 251.017L0 250.44Z" fill="#3F3D56"/>
<path d="M285.237 196.983V246.405C285.237 247.035 285.487 247.64 285.931 248.085C286.376 248.53 286.979 248.78 287.608 248.78H360.73C361.357 248.78 361.96 248.53 362.405 248.085C362.85 247.64 363.1 247.035 363.101 246.405V196.983C363.1 196.353 362.848 195.752 362.403 195.307C361.96 194.862 361.357 194.612 360.73 194.61H287.608C286.981 194.612 286.378 194.862 285.933 195.307C285.488 195.752 285.238 196.353 285.237 196.983Z" fill="#3F3D56"/>
<path d="M286.952 197.598V245.795C286.952 246.132 287.085 246.455 287.324 246.693C287.562 246.93 287.883 247.065 288.22 247.065H360.12C360.456 247.065 360.778 246.93 361.016 246.693C361.254 246.455 361.387 246.132 361.387 245.795V197.598C361.387 197.262 361.254 196.938 361.016 196.7C360.779 196.462 360.456 196.327 360.12 196.327H288.22C287.883 196.327 287.56 196.462 287.324 196.7C287.085 196.938 286.952 197.262 286.952 197.598Z" fill="#159B9D"/>
<path d="M283.708 256.045C283.841 256.212 284.011 256.348 284.206 256.442C284.399 256.533 284.611 256.582 284.825 256.58H363.121C363.336 256.58 363.547 256.532 363.741 256.44C363.934 256.347 364.104 256.213 364.239 256.047C364.374 255.88 364.47 255.685 364.52 255.477C364.57 255.268 364.573 255.052 364.53 254.842L363.314 249.058C363.264 248.823 363.156 248.603 363 248.42C362.843 248.238 362.643 248.097 362.417 248.01C362.255 247.947 362.082 247.913 361.905 247.915H286.036C285.861 247.913 285.688 247.947 285.525 248.01C285.3 248.097 285.1 248.238 284.944 248.42C284.787 248.603 284.679 248.823 284.629 249.058L283.413 254.842C283.37 255.052 283.373 255.268 283.425 255.477C283.475 255.683 283.571 255.878 283.708 256.045Z" fill="#2F2E41"/>
<path d="M359.219 250.405H361.069C361.224 250.405 361.351 250.278 361.351 250.123V249.237C361.351 249.082 361.224 248.955 361.069 248.955H359.219C359.064 248.955 358.939 249.082 358.939 249.237V250.123C358.939 250.278 359.064 250.405 359.219 250.405Z" fill="#3F3D56"/>
<path d="M354.398 250.405H356.246C356.401 250.405 356.528 250.278 356.528 250.123V249.237C356.528 249.082 356.401 248.955 356.246 248.955H354.398C354.241 248.955 354.116 249.082 354.116 249.237V250.123C354.116 250.278 354.241 250.405 354.398 250.405Z" fill="#3F3D56"/>
<path d="M349.574 250.405H351.423C351.578 250.405 351.705 250.278 351.705 250.123V249.237C351.705 249.082 351.578 248.955 351.423 248.955H349.574C349.418 248.955 349.293 249.082 349.293 249.237V250.123C349.293 250.278 349.418 250.405 349.574 250.405Z" fill="#3F3D56"/>
<path d="M344.751 250.405H346.6C346.755 250.405 346.881 250.278 346.881 250.123V249.237C346.881 249.082 346.755 248.955 346.6 248.955H344.751C344.595 248.955 344.47 249.082 344.47 249.237V250.123C344.47 250.278 344.595 250.405 344.751 250.405Z" fill="#3F3D56"/>
<path d="M339.928 250.405H341.777C341.932 250.405 342.058 250.278 342.058 250.123V249.237C342.058 249.082 341.932 248.955 341.777 248.955H339.928C339.773 248.955 339.647 249.082 339.647 249.237V250.123C339.647 250.278 339.773 250.405 339.928 250.405Z" fill="#3F3D56"/>
<path d="M335.105 250.405H336.954C337.11 250.405 337.235 250.278 337.235 250.123V249.237C337.235 249.082 337.11 248.955 336.954 248.955H335.105C334.95 248.955 334.824 249.082 334.824 249.237V250.123C334.824 250.278 334.95 250.405 335.105 250.405Z" fill="#3F3D56"/>
<path d="M330.282 250.405H332.131C332.287 250.405 332.412 250.278 332.412 250.123V249.237C332.412 249.082 332.287 248.955 332.131 248.955H330.282C330.127 248.955 330 249.082 330 249.237V250.123C330 250.278 330.127 250.405 330.282 250.405Z" fill="#3F3D56"/>
<path d="M325.459 250.405H327.309C327.464 250.405 327.589 250.278 327.589 250.123V249.237C327.589 249.082 327.464 248.955 327.309 248.955H325.459C325.304 248.955 325.177 249.082 325.177 249.237V250.123C325.177 250.278 325.304 250.405 325.459 250.405Z" fill="#3F3D56"/>
<path d="M320.636 250.405H322.486C322.641 250.405 322.766 250.278 322.766 250.123V249.237C322.766 249.082 322.641 248.955 322.486 248.955H320.636C320.481 248.955 320.356 249.082 320.356 249.237V250.123C320.356 250.278 320.481 250.405 320.636 250.405Z" fill="#3F3D56"/>
<path d="M315.813 250.405H317.663C317.818 250.405 317.944 250.278 317.944 250.123V249.237C317.944 249.082 317.818 248.955 317.663 248.955H315.813C315.658 248.955 315.533 249.082 315.533 249.237V250.123C315.533 250.278 315.658 250.405 315.813 250.405Z" fill="#3F3D56"/>
<path d="M310.991 250.405H312.84C312.995 250.405 313.121 250.278 313.121 250.123V249.237C313.121 249.082 312.995 248.955 312.84 248.955H310.991C310.835 248.955 310.71 249.082 310.71 249.237V250.123C310.71 250.278 310.835 250.405 310.991 250.405Z" fill="#3F3D56"/>
<path d="M306.168 250.405H308.017C308.172 250.405 308.298 250.278 308.298 250.123V249.237C308.298 249.082 308.172 248.955 308.017 248.955H306.168C306.011 248.955 305.887 249.082 305.887 249.237V250.123C305.887 250.278 306.011 250.405 306.168 250.405Z" fill="#3F3D56"/>
<path d="M301.345 250.405H303.194C303.348 250.405 303.475 250.278 303.475 250.123V249.237C303.475 249.082 303.348 248.955 303.194 248.955H301.345C301.19 248.955 301.063 249.082 301.063 249.237V250.123C301.063 250.278 301.19 250.405 301.345 250.405Z" fill="#3F3D56"/>
<path d="M296.522 250.405H298.37C298.527 250.405 298.652 250.278 298.652 250.123V249.237C298.652 249.082 298.527 248.955 298.37 248.955H296.522C296.367 248.955 296.24 249.082 296.24 249.237V250.123C296.24 250.278 296.367 250.405 296.522 250.405Z" fill="#3F3D56"/>
<path d="M291.699 250.405H293.547C293.704 250.405 293.829 250.278 293.829 250.123V249.237C293.829 249.082 293.704 248.955 293.547 248.955H291.699C291.544 248.955 291.417 249.082 291.417 249.237V250.123C291.417 250.278 291.544 250.405 291.699 250.405Z" fill="#3F3D56"/>
<path d="M286.876 250.405H288.724C288.881 250.405 289.006 250.278 289.006 250.123V249.237C289.006 249.082 288.881 248.955 288.724 248.955H286.876C286.721 248.955 286.594 249.082 286.594 249.237V250.123C286.594 250.278 286.721 250.405 286.876 250.405Z" fill="#3F3D56"/>
<path d="M359.277 252.82H361.126C361.281 252.82 361.407 252.693 361.407 252.538V251.652C361.407 251.497 361.281 251.37 361.126 251.37H359.277C359.121 251.37 358.996 251.497 358.996 251.652V252.538C358.996 252.693 359.121 252.82 359.277 252.82Z" fill="#3F3D56"/>
<path d="M354.454 252.82H356.303C356.458 252.82 356.584 252.693 356.584 252.538V251.652C356.584 251.497 356.458 251.37 356.303 251.37H354.454C354.298 251.37 354.173 251.497 354.173 251.652V252.538C354.173 252.693 354.298 252.82 354.454 252.82Z" fill="#3F3D56"/>
<path d="M349.631 252.82H351.48C351.635 252.82 351.761 252.693 351.761 252.538V251.652C351.761 251.497 351.635 251.37 351.48 251.37H349.631C349.476 251.37 349.35 251.497 349.35 251.652V252.538C349.35 252.693 349.476 252.82 349.631 252.82Z" fill="#3F3D56"/>
<path d="M344.808 252.82H346.657C346.813 252.82 346.938 252.693 346.938 252.538V251.652C346.938 251.497 346.813 251.37 346.657 251.37H344.808C344.653 251.37 344.526 251.497 344.526 251.652V252.538C344.526 252.693 344.653 252.82 344.808 252.82Z" fill="#3F3D56"/>
<path d="M339.985 252.82H341.833C341.99 252.82 342.115 252.693 342.115 252.538V251.652C342.115 251.497 341.99 251.37 341.833 251.37H339.985C339.83 251.37 339.703 251.497 339.703 251.652V252.538C339.703 252.693 339.83 252.82 339.985 252.82Z" fill="#3F3D56"/>
<path d="M335.162 252.82H337.012C337.167 252.82 337.292 252.693 337.292 252.538V251.652C337.292 251.497 337.167 251.37 337.012 251.37H335.162C335.007 251.37 334.88 251.497 334.88 251.652V252.538C334.88 252.693 335.007 252.82 335.162 252.82Z" fill="#3F3D56"/>
<path d="M330.339 252.82H332.189C332.344 252.82 332.469 252.693 332.469 252.538V251.652C332.469 251.497 332.344 251.37 332.189 251.37H330.339C330.184 251.37 330.059 251.497 330.059 251.652V252.538C330.059 252.693 330.184 252.82 330.339 252.82Z" fill="#3F3D56"/>
<path d="M325.516 252.82H327.366C327.521 252.82 327.647 252.693 327.647 252.538V251.652C327.647 251.497 327.521 251.37 327.366 251.37H325.516C325.361 251.37 325.236 251.497 325.236 251.652V252.538C325.236 252.693 325.361 252.82 325.516 252.82Z" fill="#3F3D56"/>
<path d="M320.694 252.82H322.543C322.698 252.82 322.824 252.693 322.824 252.538V251.652C322.824 251.497 322.698 251.37 322.543 251.37H320.694C320.537 251.37 320.413 251.497 320.413 251.652V252.538C320.413 252.693 320.537 252.82 320.694 252.82Z" fill="#3F3D56"/>
<path d="M315.871 252.82H317.72C317.874 252.82 318.001 252.693 318.001 252.538V251.652C318.001 251.497 317.874 251.37 317.72 251.37H315.871C315.714 251.37 315.589 251.497 315.589 251.652V252.538C315.589 252.693 315.714 252.82 315.871 252.82Z" fill="#3F3D56"/>
<path d="M311.048 252.82H312.896C313.051 252.82 313.178 252.693 313.178 252.538V251.652C313.178 251.497 313.051 251.37 312.896 251.37H311.048C310.893 251.37 310.766 251.497 310.766 251.652V252.538C310.766 252.693 310.893 252.82 311.048 252.82Z" fill="#3F3D56"/>
<path d="M306.225 252.82H308.073C308.23 252.82 308.355 252.693 308.355 252.538V251.652C308.355 251.497 308.23 251.37 308.073 251.37H306.225C306.07 251.37 305.943 251.497 305.943 251.652V252.538C305.943 252.693 306.07 252.82 306.225 252.82Z" fill="#3F3D56"/>
<path d="M301.402 252.82H303.25C303.407 252.82 303.532 252.693 303.532 252.538V251.652C303.532 251.497 303.407 251.37 303.25 251.37H301.402C301.247 251.37 301.12 251.497 301.12 251.652V252.538C301.12 252.693 301.247 252.82 301.402 252.82Z" fill="#3F3D56"/>
<path d="M296.578 252.82H298.429C298.584 252.82 298.709 252.693 298.709 252.538V251.652C298.709 251.497 298.584 251.37 298.429 251.37H296.578C296.424 251.37 296.297 251.497 296.297 251.652V252.538C296.297 252.693 296.424 252.82 296.578 252.82Z" fill="#3F3D56"/>
<path d="M291.755 252.82H293.606C293.761 252.82 293.885 252.693 293.885 252.538V251.652C293.885 251.497 293.761 251.37 293.606 251.37H291.755C291.6 251.37 291.474 251.497 291.474 251.652V252.538C291.474 252.693 291.6 252.82 291.755 252.82Z" fill="#3F3D56"/>
<path d="M286.932 252.82H288.783C288.937 252.82 289.064 252.693 289.064 252.538V251.652C289.064 251.497 288.937 251.37 288.783 251.37H286.932C286.777 251.37 286.652 251.497 286.652 251.652V252.538C286.652 252.693 286.777 252.82 286.932 252.82Z" fill="#3F3D56"/>
<path d="M319.247 255.718H337.976C338.131 255.718 338.258 255.592 338.258 255.437V254.55C338.258 254.395 338.131 254.27 337.976 254.27H319.247C319.092 254.27 318.965 254.395 318.965 254.55V255.437C318.965 255.592 319.092 255.718 319.247 255.718Z" fill="#3F3D56"/>
<path d="M299.403 206.87H297.766C297.27 206.87 296.867 207.273 296.867 207.77C296.867 208.268 297.27 208.672 297.766 208.672H299.403C299.899 208.672 300.302 208.268 300.302 207.77C300.302 207.273 299.899 206.87 299.403 206.87Z" fill="white"/>
<path d="M318.128 206.87H316.49C315.994 206.87 315.591 207.273 315.591 207.77C315.591 208.268 315.994 208.672 316.49 208.672H318.128C318.624 208.672 319.027 208.268 319.027 207.77C319.027 207.273 318.624 206.87 318.128 206.87Z" fill="white"/>
<path d="M323.434 206.87H321.797C321.299 206.87 320.897 207.273 320.897 207.77C320.897 208.268 321.299 208.672 321.797 208.672H323.434C323.93 208.672 324.331 208.268 324.331 207.77C324.331 207.273 323.93 206.87 323.434 206.87Z" fill="white"/>
<path d="M313.035 206.72H302.859C302.362 206.72 301.959 207.123 301.959 207.62C301.959 208.118 302.362 208.522 302.859 208.522H313.035C313.531 208.522 313.934 208.118 313.934 207.62C313.934 207.123 313.531 206.72 313.035 206.72Z" fill="white"/>
<path d="M338.001 206.72H327.825C327.329 206.72 326.926 207.123 326.926 207.62C326.926 208.118 327.329 208.522 327.825 208.522H338.001C338.498 208.522 338.899 208.118 338.899 207.62C338.899 207.123 338.498 206.72 338.001 206.72Z" fill="white"/>
<path d="M304.396 210.933H302.759C302.263 210.933 301.859 211.337 301.859 211.835C301.859 212.332 302.263 212.735 302.759 212.735H304.396C304.892 212.735 305.295 212.332 305.295 211.835C305.295 211.337 304.892 210.933 304.396 210.933Z" fill="white"/>
<path d="M323.121 210.933H321.483C320.987 210.933 320.584 211.337 320.584 211.835C320.584 212.332 320.987 212.735 321.483 212.735H323.121C323.617 212.735 324.02 212.332 324.02 211.835C324.02 211.337 323.617 210.933 323.121 210.933Z" fill="white"/>
<path d="M328.427 210.933H326.79C326.293 210.933 325.89 211.337 325.89 211.835C325.89 212.332 326.293 212.735 326.79 212.735H328.427C328.923 212.735 329.324 212.332 329.324 211.835C329.324 211.337 328.923 210.933 328.427 210.933Z" fill="white"/>
<path d="M318.028 210.783H307.852C307.355 210.783 306.954 211.187 306.954 211.683C306.954 212.182 307.355 212.585 307.852 212.585H318.028C318.524 212.585 318.927 212.182 318.927 211.683C318.927 211.187 318.524 210.783 318.028 210.783Z" fill="white"/>
<path d="M342.994 210.783H332.818C332.322 210.783 331.919 211.187 331.919 211.683C331.919 212.182 332.322 212.585 332.818 212.585H342.994C343.491 212.585 343.892 212.182 343.892 211.683C343.892 211.187 343.491 210.783 342.994 210.783Z" fill="white"/>
<path d="M309.389 214.998H307.752C307.256 214.998 306.854 215.4 306.854 215.898C306.854 216.395 307.256 216.798 307.752 216.798H309.389C309.885 216.798 310.288 216.395 310.288 215.898C310.288 215.4 309.885 214.998 309.389 214.998Z" fill="white"/>
<path d="M328.114 214.998H326.476C325.98 214.998 325.579 215.4 325.579 215.898C325.579 216.395 325.98 216.798 326.476 216.798H328.114C328.61 216.798 329.013 216.395 329.013 215.898C329.013 215.4 328.61 214.998 328.114 214.998Z" fill="white"/>
<path d="M333.42 214.998H331.783C331.286 214.998 330.883 215.4 330.883 215.898C330.883 216.395 331.286 216.798 331.783 216.798H333.42C333.916 216.798 334.317 216.395 334.317 215.898C334.317 215.4 333.916 214.998 333.42 214.998Z" fill="white"/>
<path d="M323.021 214.847H312.845C312.349 214.847 311.947 215.25 311.947 215.748C311.947 216.245 312.349 216.648 312.845 216.648H323.021C323.517 216.648 323.92 216.245 323.92 215.748C323.92 215.25 323.517 214.847 323.021 214.847Z" fill="white"/>
<path d="M347.987 214.847H337.811C337.315 214.847 336.912 215.25 336.912 215.748C336.912 216.245 337.315 216.648 337.811 216.648H347.987C348.484 216.648 348.887 216.245 348.887 215.748C348.887 215.25 348.484 214.847 347.987 214.847Z" fill="white"/>
<path d="M314.382 219.062H312.745C312.249 219.062 311.847 219.463 311.847 219.962C311.847 220.458 312.249 220.862 312.745 220.862H314.382C314.878 220.862 315.281 220.458 315.281 219.962C315.281 219.463 314.878 219.062 314.382 219.062Z" fill="white"/>
<path d="M333.107 219.062H331.469C330.973 219.062 330.572 219.463 330.572 219.962C330.572 220.458 330.973 220.862 331.469 220.862H333.107C333.605 220.862 334.006 220.458 334.006 219.962C334.006 219.463 333.605 219.062 333.107 219.062Z" fill="white"/>
<path d="M338.413 219.062H336.776C336.279 219.062 335.876 219.463 335.876 219.962C335.876 220.458 336.279 220.862 336.776 220.862H338.413C338.909 220.862 339.312 220.458 339.312 219.962C339.312 219.463 338.909 219.062 338.413 219.062Z" fill="white"/>
<path d="M328.014 218.912H317.839C317.341 218.912 316.94 219.313 316.94 219.812C316.94 220.308 317.341 220.712 317.839 220.712H328.014C328.51 220.712 328.913 220.308 328.913 219.812C328.913 219.313 328.51 218.912 328.014 218.912Z" fill="white"/>
<path d="M318.128 235.22H316.49C315.994 235.22 315.591 235.623 315.591 236.12C315.591 236.617 315.994 237.02 316.49 237.02H318.128C318.624 237.02 319.027 236.617 319.027 236.12C319.027 235.623 318.624 235.22 318.128 235.22Z" fill="white"/>
<path d="M323.434 235.22H321.797C321.299 235.22 320.897 235.623 320.897 236.12C320.897 236.617 321.299 237.02 321.797 237.02H323.434C323.93 237.02 324.331 236.617 324.331 236.12C324.331 235.623 323.93 235.22 323.434 235.22Z" fill="white"/>
<path d="M338.001 235.37H327.825C327.329 235.37 326.926 235.773 326.926 236.27C326.926 236.767 327.329 237.17 327.825 237.17H338.001C338.498 237.17 338.899 236.767 338.899 236.27C338.899 235.773 338.498 235.37 338.001 235.37Z" fill="white"/>
<path d="M299.403 235.22H297.766C297.27 235.22 296.867 235.623 296.867 236.12C296.867 236.617 297.27 237.02 297.766 237.02H299.403C299.899 237.02 300.302 236.617 300.302 236.12C300.302 235.623 299.899 235.22 299.403 235.22Z" fill="white"/>
<path d="M313.035 235.37H302.859C302.362 235.37 301.959 235.773 301.959 236.27C301.959 236.767 302.362 237.17 302.859 237.17H313.035C313.531 237.17 313.934 236.767 313.934 236.27C313.934 235.773 313.531 235.37 313.035 235.37Z" fill="white"/>
<path d="M304.396 231.157H302.759C302.263 231.157 301.859 231.558 301.859 232.057C301.859 232.553 302.263 232.957 302.759 232.957H304.396C304.892 232.957 305.295 232.553 305.295 232.057C305.295 231.558 304.892 231.157 304.396 231.157Z" fill="white"/>
<path d="M323.121 231.157H321.483C320.987 231.157 320.584 231.558 320.584 232.057C320.584 232.553 320.987 232.957 321.483 232.957H323.121C323.617 232.957 324.02 232.553 324.02 232.057C324.02 231.558 323.617 231.157 323.121 231.157Z" fill="white"/>
<path d="M328.427 231.157H326.79C326.293 231.157 325.89 231.558 325.89 232.057C325.89 232.553 326.293 232.957 326.79 232.957H328.427C328.923 232.957 329.324 232.553 329.324 232.057C329.324 231.558 328.923 231.157 328.427 231.157Z" fill="white"/>
<path d="M318.028 231.307H307.852C307.355 231.307 306.954 231.708 306.954 232.207C306.954 232.703 307.355 233.107 307.852 233.107H318.028C318.524 233.107 318.927 232.703 318.927 232.207C318.927 231.708 318.524 231.307 318.028 231.307Z" fill="white"/>
<path d="M309.389 227.092H307.752C307.256 227.092 306.854 227.495 306.854 227.993C306.854 228.49 307.256 228.893 307.752 228.893H309.389C309.885 228.893 310.288 228.49 310.288 227.993C310.288 227.495 309.885 227.092 309.389 227.092Z" fill="white"/>
<path d="M328.114 227.092H326.476C325.98 227.092 325.579 227.495 325.579 227.993C325.579 228.49 325.98 228.893 326.476 228.893H328.114C328.61 228.893 329.013 228.49 329.013 227.993C329.013 227.495 328.61 227.092 328.114 227.092Z" fill="white"/>
<path d="M333.42 227.092H331.783C331.286 227.092 330.883 227.495 330.883 227.993C330.883 228.49 331.286 228.893 331.783 228.893H333.42C333.916 228.893 334.317 228.49 334.317 227.993C334.317 227.495 333.916 227.092 333.42 227.092Z" fill="white"/>
<path d="M323.021 227.243H312.845C312.349 227.243 311.947 227.645 311.947 228.143C311.947 228.64 312.349 229.043 312.845 229.043H323.021C323.517 229.043 323.92 228.64 323.92 228.143C323.92 227.645 323.517 227.243 323.021 227.243Z" fill="white"/>
<path d="M314.382 223.028H312.745C312.249 223.028 311.847 223.432 311.847 223.928C311.847 224.427 312.249 224.83 312.745 224.83H314.382C314.878 224.83 315.281 224.427 315.281 223.928C315.281 223.432 314.878 223.028 314.382 223.028Z" fill="white"/>
<path d="M333.107 223.028H331.469C330.973 223.028 330.572 223.432 330.572 223.928C330.572 224.427 330.973 224.83 331.469 224.83H333.107C333.605 224.83 334.006 224.427 334.006 223.928C334.006 223.432 333.605 223.028 333.107 223.028Z" fill="white"/>
<path d="M338.413 223.028H336.776C336.279 223.028 335.876 223.432 335.876 223.928C335.876 224.427 336.279 224.83 336.776 224.83H338.413C338.909 224.83 339.312 224.427 339.312 223.928C339.312 223.432 338.909 223.028 338.413 223.028Z" fill="white"/>
<path d="M328.014 223.178H317.839C317.341 223.178 316.94 223.582 316.94 224.078C316.94 224.577 317.341 224.98 317.839 224.98H328.014C328.51 224.98 328.913 224.577 328.913 224.078C328.913 223.582 328.51 223.178 328.014 223.178Z" fill="white"/>
<path d="M290.699 282.843L283.013 270.675L307.137 251.412L317.095 240.362C318.389 238.927 320.036 237.857 321.872 237.258C323.708 236.66 325.669 236.555 327.557 236.953C329.448 237.352 331.198 238.24 332.639 239.53C334.078 240.818 335.153 242.463 335.76 244.3C336.657 247.022 336.464 249.985 335.22 252.567C333.978 255.147 331.783 257.143 329.098 258.135L313.353 263.945L290.699 282.843Z" fill="#FFB6B6"/>
<path d="M110.363 194.613V253.755H151.729V194.613C151.73 194.187 151.594 193.773 151.343 193.43C151.091 193.088 150.736 192.835 150.33 192.71C150.139 192.647 149.939 192.615 149.737 192.618H112.36C112.098 192.617 111.839 192.668 111.597 192.768C111.354 192.868 111.134 193.015 110.949 193.2C110.763 193.385 110.616 193.607 110.515 193.848C110.415 194.09 110.363 194.35 110.363 194.613ZM126.506 214.935C126.517 213.768 126.987 212.653 127.814 211.833C128.641 211.013 129.758 210.552 130.922 210.552C132.086 210.552 133.203 211.013 134.03 211.833C134.857 212.653 135.327 213.768 135.338 214.935V221.797C135.332 222.965 134.864 224.085 134.037 224.91C133.209 225.735 132.089 226.197 130.922 226.197C129.755 226.197 128.635 225.735 127.808 224.91C126.98 224.085 126.512 222.965 126.506 221.797V214.935Z" fill="#2F2E41"/>
<path d="M110.236 251.863V257.567C110.237 257.863 110.354 258.145 110.562 258.355C110.77 258.565 111.052 258.683 111.347 258.687H150.745C151.04 258.685 151.323 258.565 151.531 258.357C151.739 258.147 151.856 257.863 151.856 257.567V251.863H110.236Z" fill="#3F3D56"/>
<path d="M45.2874 105.507V213.493C45.2884 214.868 45.8346 216.188 46.8062 217.162C47.7777 218.135 49.0951 218.682 50.4689 218.683H210.235C211.609 218.682 212.927 218.135 213.898 217.162C214.87 216.188 215.417 214.868 215.417 213.493V105.507C215.413 104.132 214.867 102.814 213.896 101.843C212.925 100.871 211.608 100.324 210.235 100.323H50.4689C49.0962 100.324 47.7802 100.871 46.8089 101.843C45.8378 102.814 45.2905 104.132 45.2874 105.507Z" fill="#3F3D56"/>
<path d="M49.0354 106.85V212.16C49.0366 212.897 49.3289 213.6 49.8478 214.12C50.3669 214.64 51.0706 214.933 51.8047 214.935H208.906C209.639 214.933 210.344 214.64 210.861 214.12C211.381 213.6 211.674 212.897 211.674 212.16V106.85C211.674 106.114 211.383 105.408 210.863 104.887C210.345 104.366 209.641 104.073 208.906 104.071H51.8047C51.0697 104.073 50.3654 104.366 49.8461 104.887C49.327 105.408 49.0354 106.114 49.0354 106.85Z" fill="white"/>
<path d="M78.1906 258.3C78.3505 258.5 78.5537 258.662 78.7852 258.773C79.0165 258.883 79.2698 258.942 79.5263 258.94H172.991C173.247 258.94 173.499 258.882 173.73 258.772C173.96 258.662 174.163 258.502 174.325 258.302C174.485 258.103 174.6 257.872 174.661 257.622C174.721 257.373 174.725 257.113 174.673 256.863L173.221 249.962C173.161 249.68 173.033 249.417 172.844 249.198C172.658 248.98 172.42 248.812 172.15 248.71C171.957 248.633 171.749 248.593 171.54 248.595H80.9714C80.7625 248.593 80.5555 248.633 80.3612 248.71C80.0925 248.812 79.8539 248.98 79.6669 249.198C79.4798 249.417 79.3504 249.68 79.2903 249.962L77.8394 256.863C77.7877 257.113 77.7926 257.373 77.8532 257.622C77.914 257.87 78.0292 258.102 78.1906 258.3Z" fill="#2F2E41"/>
<path d="M203.807 118.578H56.8084C56.6557 118.575 56.5103 118.511 56.4033 118.402C56.2966 118.292 56.2366 118.145 56.2366 117.992C56.2366 117.839 56.2966 117.692 56.4033 117.583C56.5103 117.473 56.6557 117.41 56.8084 117.407H203.807C203.96 117.41 204.105 117.473 204.211 117.583C204.32 117.692 204.38 117.839 204.38 117.992C204.38 118.145 204.32 118.292 204.211 118.402C204.105 118.511 203.96 118.575 203.807 118.578Z" fill="#3F3D56"/>
<path d="M66.8148 114.417C68.707 114.417 70.2407 112.847 70.2407 110.91C70.2407 108.972 68.707 107.402 66.8148 107.402C64.9227 107.402 63.389 108.972 63.389 110.91C63.389 112.847 64.9227 114.417 66.8148 114.417Z" fill="#3F3D56"/>
<path d="M78.6496 114.417C80.5417 114.417 82.0754 112.847 82.0754 110.91C82.0754 108.972 80.5417 107.402 78.6496 107.402C76.7575 107.402 75.2238 108.972 75.2238 110.91C75.2238 112.847 76.7575 114.417 78.6496 114.417Z" fill="#3F3D56"/>
<path d="M90.4846 114.417C92.3765 114.417 93.9104 112.847 93.9104 110.91C93.9104 108.972 92.3765 107.402 90.4846 107.402C88.5925 107.402 87.0586 108.972 87.0586 110.91C87.0586 112.847 88.5925 114.417 90.4846 114.417Z" fill="#3F3D56"/>
<path d="M196.68 108.269H188.275C188.108 108.273 187.95 108.342 187.835 108.461C187.719 108.58 187.654 108.74 187.654 108.906C187.654 109.073 187.719 109.233 187.835 109.352C187.95 109.471 188.108 109.54 188.275 109.543H196.68C196.848 109.541 197.007 109.473 197.125 109.354C197.242 109.234 197.308 109.074 197.308 108.906C197.308 108.739 197.242 108.578 197.125 108.459C197.007 108.34 196.848 108.271 196.68 108.269Z" fill="#3F3D56"/>
<path d="M196.68 110.662H188.275C188.108 110.666 187.95 110.735 187.833 110.854C187.717 110.973 187.652 111.133 187.652 111.299C187.652 111.466 187.717 111.626 187.833 111.745C187.95 111.864 188.108 111.933 188.275 111.937H196.68C196.848 111.935 197.008 111.867 197.125 111.747C197.243 111.628 197.31 111.467 197.31 111.299C197.31 111.132 197.243 110.971 197.125 110.852C197.008 110.732 196.848 110.664 196.68 110.662Z" fill="#3F3D56"/>
<path d="M196.68 113.055H188.275C188.108 113.059 187.95 113.128 187.835 113.247C187.719 113.366 187.654 113.526 187.654 113.693C187.654 113.859 187.719 114.019 187.835 114.138C187.95 114.257 188.108 114.326 188.275 114.33H196.68C196.848 114.327 197.007 114.259 197.125 114.14C197.242 114.021 197.308 113.86 197.308 113.693C197.308 113.525 197.242 113.364 197.125 113.245C197.007 113.126 196.848 113.058 196.68 113.055Z" fill="#3F3D56"/>
<path d="M399.328 254.367C399.581 255.107 400.062 255.747 400.702 256.195C401.341 256.645 402.107 256.878 402.887 256.865L418.139 256.472C418.927 256.457 419.686 256.187 420.307 255.702C420.929 255.218 421.375 254.545 421.583 253.785L423.742 230.668C424.508 231.017 425.34 231.188 426.181 231.172C426.911 231.153 427.63 230.99 428.298 230.693C428.966 230.397 429.569 229.972 430.072 229.442C430.577 228.91 430.97 228.287 431.233 227.603C431.496 226.922 431.621 226.193 431.602 225.462C431.584 224.73 431.423 224.01 431.126 223.342C430.83 222.672 430.405 222.068 429.875 221.565C429.346 221.06 428.723 220.665 428.04 220.402C427.359 220.14 426.633 220.013 425.902 220.032C425.567 220.03 425.23 220.065 424.902 220.137C424.546 219.748 424.111 219.442 423.628 219.232C423.144 219.023 422.622 218.918 422.096 218.923L398.635 219.53C398.44 219.537 398.247 219.562 398.055 219.602C397.543 219.698 397.055 219.903 396.625 220.205C396.197 220.505 395.837 220.895 395.571 221.347C395.306 221.798 395.139 222.302 395.084 222.822C395.029 223.343 395.086 223.87 395.251 224.368L399.328 254.367ZM424.185 229.1L425.72 223.59C425.895 222.955 425.898 222.283 425.732 221.645C425.807 221.645 425.872 221.608 425.947 221.608C426.999 221.587 428.018 221.985 428.78 222.713C429.541 223.443 429.982 224.445 430.007 225.5C430.03 226.555 429.637 227.577 428.911 228.34C428.185 229.105 427.186 229.548 426.133 229.577C425.452 229.598 424.777 229.433 424.185 229.1Z" fill="#2F2E41"/>
<path d="M398.055 219.602C398.557 222.465 404.176 224.477 410.933 224.127C417.146 223.84 422.228 221.655 423.159 219.065C422.814 218.963 422.456 218.915 422.096 218.923L398.635 219.53C398.44 219.537 398.247 219.562 398.055 219.602Z" fill="#3F3D56"/>
<path d="M412.172 241.663C412.202 241.657 412.232 241.643 412.258 241.625L415.571 239.455C415.611 239.428 415.644 239.392 415.666 239.35C415.689 239.308 415.701 239.262 415.701 239.213C415.701 239.165 415.689 239.118 415.666 239.077C415.644 239.033 415.611 238.998 415.571 238.972L412.128 236.713C412.097 236.692 412.062 236.678 412.023 236.67C411.987 236.663 411.948 236.663 411.912 236.672C411.874 236.678 411.839 236.693 411.807 236.715C411.777 236.737 411.749 236.763 411.729 236.795C411.707 236.827 411.694 236.863 411.687 236.9C411.679 236.938 411.68 236.977 411.687 237.013C411.695 237.05 411.71 237.085 411.732 237.117C411.754 237.148 411.78 237.175 411.812 237.195L414.888 239.213L411.944 241.143C411.887 241.18 411.844 241.237 411.825 241.302C411.805 241.368 411.81 241.438 411.837 241.5C411.865 241.563 411.914 241.613 411.973 241.643C412.035 241.673 412.105 241.68 412.172 241.663Z" fill="#6C63FF"/>
<path d="M406.941 241.905C406.996 241.892 407.045 241.862 407.084 241.818C407.122 241.775 407.147 241.722 407.154 241.665C407.162 241.608 407.152 241.55 407.127 241.498C407.102 241.447 407.062 241.405 407.012 241.377L403.959 239.623L406.911 237.427C406.941 237.405 406.966 237.377 406.986 237.343C407.006 237.312 407.017 237.275 407.024 237.238C407.029 237.2 407.027 237.162 407.017 237.125C407.009 237.088 406.992 237.055 406.969 237.023C406.947 236.993 406.919 236.968 406.886 236.948C406.854 236.93 406.817 236.917 406.781 236.912C406.744 236.905 406.706 236.907 406.669 236.917C406.632 236.925 406.597 236.942 406.568 236.965L403.263 239.423C403.225 239.452 403.193 239.488 403.173 239.532C403.153 239.575 403.145 239.623 403.147 239.672C403.15 239.718 403.165 239.765 403.19 239.807C403.215 239.847 403.25 239.88 403.292 239.905L406.726 241.877C406.791 241.913 406.867 241.923 406.941 241.905Z" fill="#6C63FF"/>
<path d="M411.842 243.567C411.87 243.56 411.897 243.548 411.92 243.533C411.954 243.513 411.982 243.488 412.004 243.458C412.027 243.427 412.042 243.392 412.052 243.355C412.06 243.318 412.062 243.28 412.055 243.243C412.05 243.205 412.037 243.17 412.017 243.137L407.322 235.405C407.282 235.34 407.219 235.293 407.144 235.275C407.07 235.257 406.992 235.27 406.926 235.31C406.861 235.35 406.814 235.413 406.796 235.487C406.779 235.562 406.791 235.64 406.831 235.705L411.526 243.438C411.557 243.49 411.605 243.532 411.662 243.555C411.719 243.578 411.782 243.582 411.842 243.567Z" fill="#159B9D"/>
<path d="M147.872 150.409H122.429C121.391 150.409 120.55 151.252 120.55 152.292V154.781C120.55 155.821 121.391 156.664 122.429 156.664H147.872C148.909 156.664 149.751 155.821 149.751 154.781V152.292C149.751 151.252 148.909 150.409 147.872 150.409Z" fill="#159B9D"/>
<path d="M162.702 162.918H107.599C106.561 162.918 105.72 163.761 105.72 164.8V167.29C105.72 168.33 106.561 169.172 107.599 169.172H162.702C163.74 169.172 164.581 168.33 164.581 167.29V164.8C164.581 163.761 163.74 162.918 162.702 162.918Z" fill="#E6E6E6"/>
<path d="M162.702 175.427H107.599C106.561 175.427 105.72 176.27 105.72 177.308V179.798C105.72 180.838 106.561 181.682 107.599 181.682H162.702C163.74 181.682 164.581 180.838 164.581 179.798V177.308C164.581 176.27 163.74 175.427 162.702 175.427Z" fill="#E6E6E6"/>
<path d="M167.372 217.313L167.497 217.708L167.503 217.722L171.261 229.162L175.582 242.343L183.713 267.118L183.791 270.967V270.98L184.396 301.938L182.722 306.135L184.606 313.015C184.606 313.015 183.74 302.615 179.09 308.587C176.455 311.982 173.376 315.455 170.848 318.712C174.532 320.205 178.275 321.555 182.078 322.763C182.899 323.027 183.726 323.277 184.554 323.527C184.731 323.58 184.909 323.632 185.085 323.685C197.691 327.418 210.723 329.517 223.862 329.928C224.545 329.947 225.216 329.96 225.865 329.973C226.095 329.98 226.318 329.987 226.542 329.987C227.278 329.993 228.007 330 228.742 330C230.227 330 231.704 329.978 233.175 329.935C244.064 329.627 254.889 328.16 265.47 325.56C265.396 321.185 265.2 316.073 264.918 310.613C264.787 307.937 261.837 305.035 261.659 302.233C261.536 300.128 264.182 298.147 264.044 296.01C263.151 282.847 262.034 287.9 261.206 278.578C261.121 277.663 261.043 276.788 260.97 275.953C260.438 269.967 260.07 266.223 260.07 266.223L263.604 243.917L269.154 208.893L268.727 208.188L268.248 207.952L238.974 193.44L237.385 189.362C236.922 188.187 236.12 187.177 235.079 186.463C234.038 185.75 232.807 185.363 231.546 185.355L212.264 185.277C211.263 185.272 210.275 185.507 209.383 185.96C208.492 186.415 207.72 187.075 207.134 187.888L201.913 195.132L167.372 217.313Z" fill="#3F3D56"/>
<path d="M188.16 261.605L183.791 270.967L180.81 277.36L175.681 304.26L173.113 306.99L170.913 297.325L147.885 302.447C147.129 298.243 147.683 302.588 147.216 297.977C147.347 297.845 147.485 297.713 147.623 297.583C147.991 297.24 148.3 296.918 148.293 296.608C148.031 280.702 148.819 253.632 155.4 237.232C156.43 234.555 157.789 232.015 159.445 229.673C159.577 229.497 159.702 229.318 159.826 229.142C162.861 224.885 164.778 220.695 167.497 217.715V217.708C167.515 217.695 167.53 217.678 167.543 217.662C167.553 217.657 167.562 217.65 167.57 217.642L186.248 207.722L187.049 230.273L187.622 246.482L188.16 261.605Z" fill="#3F3D56"/>
<path d="M255.512 264.265L260.968 275.957L262.872 280.028L267.999 306.925L270.559 309.648L272.764 299.985L273.8 299.773L292.488 295.897L297.936 313.223C299.163 311.173 299.646 308.763 299.305 306.398C298.962 304.033 297.816 301.86 296.057 300.245C295.686 299.907 295.376 299.58 295.384 299.268C295.694 280.56 294.552 246.398 284.234 232.338C280.957 227.875 278.991 223.432 276.13 220.327C276.122 220.318 276.122 220.308 276.112 220.308L269.152 208.892L268.726 208.192L268.248 207.952L255.512 264.265Z" fill="#3F3D56"/>
<path d="M222.461 179.78C236.631 179.78 248.116 168.275 248.116 154.085C248.116 139.894 236.631 128.39 222.461 128.39C208.293 128.39 196.808 139.894 196.808 154.085C196.808 168.275 208.293 179.78 222.461 179.78Z" fill="#FFB6B6"/>
<path d="M257.136 136.137C256.938 135.924 256.698 135.754 256.431 135.636C256.165 135.518 255.878 135.455 255.587 135.451L255.973 134.378C256.1 134.04 256.133 133.675 256.072 133.319C256.01 132.964 255.855 132.632 255.624 132.356C255.392 132.08 255.091 131.871 254.751 131.75C254.413 131.629 254.046 131.601 253.693 131.668L252.288 131.939L252.421 130.999C252.471 130.649 252.431 130.291 252.301 129.962C252.173 129.633 251.961 129.342 251.686 129.12C251.412 128.898 251.084 128.751 250.734 128.694C250.386 128.637 250.029 128.672 249.698 128.796C249.396 128.914 249.073 128.964 248.75 128.941C248.427 128.918 248.114 128.823 247.833 128.663C247.549 128.508 247.305 128.293 247.113 128.033C246.923 127.773 246.79 127.475 246.727 127.158L246.237 124.794L246.186 124.667C243.802 120.688 239.219 117.793 233.611 116.732C228.62 115.781 223.502 116.265 218.567 116.721C216.611 116.905 214.399 117.113 212.557 118.243C210.991 119.212 209.667 121.149 209.937 123.104C205.072 121.611 199.856 124.592 197.271 128.352C194.209 132.827 193.707 138.432 193.628 142.814C193.408 153.183 195.544 161.666 199.96 168.032C200.283 168.493 200.363 169.457 201.002 169.78L200.869 169.567C201.583 169.923 202.309 170.5 202.038 171.117C201.26 172.893 206.425 176.82 210.064 178.118C216.702 180.488 225.529 180.287 231.734 179.433L231.954 177.962C234.193 177.657 235.77 177.073 236.214 176.163C236.997 175.493 237.665 174.895 238.246 174.34L238.251 174.335C238.263 174.323 238.286 174.307 238.298 174.295C241.103 171.602 241.752 170.068 242.047 167.732C242.328 165.443 241.827 163.119 241.316 161.026C252.104 162.698 237.066 149.515 247.118 146.967C247.233 146.931 247.351 146.902 247.47 146.88C247.763 146.811 248.057 146.742 248.339 146.661C249.7 146.291 251 145.734 252.208 145.006C255.017 143.293 255.945 141.021 257.396 138.461C257.604 138.096 257.692 137.674 257.645 137.256C257.599 136.838 257.421 136.446 257.136 136.137Z" fill="#2F2E41"/>
<path d="M313.196 266.093C313.19 267.103 313.178 268.515 313.133 270.263C313.126 270.505 313.121 270.753 313.115 271.007C313.04 274.218 312.965 276.912 312.845 279.905C312.838 280.112 312.833 280.313 312.822 280.522C312.66 284.697 312.407 289.558 311.969 297.257C311.158 311.477 309.74 299.212 308.32 304.2C308.25 304.447 308.175 304.742 308.107 305.088C307.89 306.343 307.527 307.568 307.024 308.738C306.27 309.188 305.492 309.62 304.726 310.053C302.544 311.27 300.327 312.44 298.094 313.553C296.838 314.175 295.578 314.787 294.312 315.375C294.11 315.468 293.914 315.56 293.719 315.647C287.232 318.652 280.547 321.207 273.712 323.293C272.376 323.697 271.046 324.088 269.698 324.452C268.294 324.843 266.889 325.213 265.466 325.558C254.887 328.16 244.062 329.628 233.173 329.937C231.706 329.982 230.226 330 228.742 330C228.004 330 227.278 329.993 226.542 329.988C226.317 329.988 226.092 329.982 225.869 329.977C225.218 329.958 224.543 329.948 223.864 329.93C210.725 329.52 197.695 327.422 185.089 323.685L184.553 323.53C183.725 323.275 182.9 323.028 182.078 322.762C178.277 321.557 174.533 320.208 170.844 318.713C168.03 317.578 165.247 316.36 162.497 315.058C162.472 315.052 162.448 315.04 162.428 315.023C161.852 314.758 161.271 314.482 160.695 314.198C160.62 314.158 160.539 314.118 160.459 314.078C158.311 313.028 156.187 311.928 154.085 310.78C152.318 306.713 149.831 305.935 148.288 302.36C147.839 301.298 147.514 300.187 147.32 299.05C147.32 299.038 147.315 299.027 147.315 299.01C147.476 301.155 146.63 295.203 147.309 298.987C147.303 298.917 147.297 298.842 147.292 298.755C147.275 298.548 147.251 298.295 147.217 297.977C145.242 278.665 145.369 256.578 144.511 238.38C144.453 237.203 144.394 236.077 144.332 235C144.315 234.642 144.292 234.29 144.269 233.945C144.309 233.842 144.355 233.732 144.407 233.627C144.418 233.598 144.432 233.568 144.448 233.542C144.465 233.505 144.484 233.47 144.505 233.437C144.517 233.42 144.534 233.397 144.546 233.38C144.554 233.36 144.563 233.34 144.574 233.322C144.626 233.242 144.684 233.155 144.747 233.073C144.776 233.04 144.799 233.01 144.827 232.982C144.847 232.952 144.871 232.925 144.897 232.902C144.914 232.873 144.936 232.848 144.96 232.827C144.983 232.803 145.006 232.773 145.035 232.745C145.047 232.727 145.063 232.712 145.081 232.698C145.126 232.647 145.177 232.598 145.231 232.555C145.436 232.365 145.655 232.192 145.887 232.037C145.967 231.983 146.054 231.932 146.135 231.875C146.715 231.527 147.326 231.233 147.96 230.998C148.178 230.917 148.397 230.842 148.633 230.762C148.719 230.738 148.8 230.71 148.886 230.68C149.013 230.64 149.14 230.6 149.272 230.572C149.929 230.375 150.637 230.208 151.402 230.052C151.495 230.035 151.592 230.018 151.69 229.995C151.828 229.965 151.972 229.943 152.116 229.92C152.312 229.885 152.514 229.85 152.715 229.815C154.425 229.545 156.365 229.343 158.507 229.21C158.709 229.198 158.91 229.187 159.111 229.175C159.348 229.163 159.584 229.153 159.825 229.142C160.027 229.13 160.234 229.123 160.441 229.118C160.643 229.107 160.85 229.1 161.063 229.095C161.645 229.078 162.243 229.06 162.854 229.048C164.593 229.015 166.423 229.025 168.346 229.067C169.239 229.088 170.148 229.112 171.081 229.153C171.144 229.153 171.202 229.158 171.259 229.158C172.072 229.187 172.889 229.222 173.729 229.268C174.317 229.297 174.91 229.325 175.503 229.36C176.06 229.395 176.625 229.43 177.195 229.47C177.639 229.493 178.082 229.527 178.53 229.557C178.912 229.585 179.291 229.613 179.671 229.637L180.189 229.672C180.471 229.695 180.754 229.712 181.042 229.74C181.675 229.793 182.308 229.845 182.952 229.897C183.592 229.953 184.243 230.012 184.892 230.07C185.544 230.127 186.2 230.19 186.856 230.253C186.926 230.26 186.989 230.265 187.052 230.272C187.65 230.335 188.25 230.392 188.854 230.457C188.993 230.467 189.136 230.478 189.274 230.497C189.85 230.555 190.438 230.622 191.019 230.683C191.198 230.703 191.376 230.722 191.556 230.742C192.01 230.792 192.46 230.835 192.918 230.888C193.523 230.958 194.139 231.022 194.738 231.102C195.205 231.153 195.671 231.205 196.137 231.263C196.868 231.35 197.611 231.442 198.354 231.54C198.636 231.575 198.917 231.608 199.2 231.65C201.319 231.915 203.46 232.208 205.637 232.515C208.936 232.982 212.287 233.488 215.66 234.037C219.041 234.585 222.438 235.163 225.857 235.773C226.72 235.928 227.584 236.083 228.454 236.245C228.845 236.32 229.236 236.395 229.628 236.47C230.296 236.592 230.963 236.718 231.631 236.845C232.299 236.972 232.967 237.098 233.635 237.232C234.429 237.387 235.229 237.543 236.025 237.698C241.257 238.737 246.462 239.843 251.54 241.003C252.374 241.193 253.21 241.39 254.038 241.58C255.697 241.967 257.339 242.358 258.968 242.757C259.416 242.86 259.859 242.97 260.303 243.078C261.408 243.355 262.514 243.633 263.601 243.915L263.791 243.967C264.592 244.163 265.375 244.365 266.158 244.573C268.006 245.057 269.823 245.547 271.61 246.043C272.796 246.372 273.968 246.705 275.128 247.04C276.861 247.542 278.56 248.05 280.212 248.563C280.62 248.69 281.03 248.817 281.433 248.938C282.64 249.313 283.833 249.693 284.99 250.073C285.911 250.373 286.809 250.68 287.697 250.985C288.583 251.29 289.452 251.597 290.305 251.902C290.851 252.098 291.392 252.305 291.934 252.502C292.711 252.79 293.476 253.078 294.225 253.367C294.455 253.453 294.68 253.545 294.905 253.632C295.048 253.695 295.186 253.747 295.324 253.805C295.596 253.915 295.872 254.018 296.137 254.128C296.407 254.232 296.672 254.342 296.937 254.457C297.196 254.56 297.461 254.67 297.714 254.78C297.972 254.883 298.226 254.993 298.48 255.108C298.692 255.195 298.9 255.287 299.102 255.38C299.51 255.558 299.919 255.737 300.316 255.922C300.512 256.013 300.707 256.1 300.904 256.192L301.353 256.4C301.417 256.435 301.48 256.463 301.543 256.492C301.686 256.562 301.836 256.637 301.979 256.705C302.314 256.862 302.642 257.028 302.965 257.183C303.397 257.403 303.816 257.622 304.22 257.835C304.629 258.055 305.026 258.273 305.405 258.487C305.469 258.522 305.527 258.557 305.59 258.592C305.677 258.637 305.763 258.69 305.848 258.735C306.143 258.903 306.425 259.075 306.708 259.243C307.259 259.583 307.784 259.918 308.273 260.252C308.383 260.327 308.486 260.402 308.595 260.472C308.958 260.73 309.304 260.985 309.626 261.243C309.626 261.25 309.626 261.25 309.632 261.25C309.74 261.33 309.845 261.417 309.949 261.498C310.035 261.578 310.127 261.648 310.213 261.728C310.513 261.988 310.79 262.235 311.043 262.49C311.128 262.568 311.208 262.65 311.284 262.737C311.318 262.765 311.348 262.797 311.376 262.83C311.491 262.945 311.596 263.06 311.692 263.175C311.707 263.192 311.722 263.208 311.732 263.228C311.871 263.388 311.999 263.55 312.119 263.712C312.177 263.793 312.24 263.873 312.292 263.953C312.36 264.052 312.43 264.157 312.487 264.253C312.538 264.335 312.585 264.422 312.632 264.502C312.753 264.71 312.858 264.928 312.941 265.153C313.006 265.307 313.06 265.465 313.098 265.627C313.141 265.78 313.175 265.935 313.196 266.093Z" fill="#2F2E41"/>
<path opacity="0.2" d="M313.196 266.093C313.19 267.103 313.178 268.515 313.133 270.263C313.126 270.505 313.115 270.753 313.11 271.007C313.051 273.458 312.965 276.485 312.845 279.905C312.838 280.112 312.833 280.313 312.821 280.522C312.66 284.697 312.407 289.558 311.969 297.257C311.158 311.477 309.74 299.212 308.32 304.2C304.369 301.767 300.039 299.217 295.411 296.598C294.577 296.127 293.734 295.652 292.883 295.175C283.626 290.002 273.286 284.582 262.49 279.213C262.064 279 261.632 278.787 261.206 278.578C236.479 266.335 209.488 254.428 187.622 246.482C183.402 244.947 179.371 243.563 175.582 242.347C167.603 239.792 160.706 238.005 155.398 237.232C149.871 236.425 146.054 236.713 144.511 238.38C144.453 237.203 144.394 236.077 144.332 235C144.309 234.642 144.286 234.29 144.263 233.945C144.299 233.85 144.345 233.758 144.39 233.668C144.396 233.655 144.401 233.64 144.407 233.627C144.418 233.598 144.432 233.568 144.448 233.542C144.465 233.505 144.484 233.47 144.505 233.437C144.524 233.397 144.547 233.358 144.574 233.322C144.626 233.242 144.684 233.155 144.747 233.073C144.793 233.013 144.843 232.955 144.897 232.902C144.914 232.873 144.936 232.848 144.96 232.827C144.983 232.803 145.006 232.773 145.035 232.745C145.047 232.727 145.063 232.712 145.081 232.698C145.126 232.647 145.177 232.598 145.23 232.555C145.436 232.365 145.655 232.192 145.887 232.037C145.967 231.983 146.054 231.932 146.134 231.875C146.715 231.527 147.326 231.233 147.959 230.998C148.178 230.917 148.397 230.842 148.633 230.762C148.719 230.738 148.8 230.71 148.886 230.68C149.013 230.64 149.14 230.6 149.272 230.572C149.929 230.375 150.637 230.208 151.402 230.052C151.633 230.007 151.874 229.96 152.116 229.92C152.312 229.885 152.514 229.85 152.715 229.815C154.425 229.545 156.365 229.343 158.507 229.21C158.708 229.198 158.91 229.187 159.111 229.175C159.348 229.163 159.584 229.153 159.825 229.142C160.027 229.13 160.234 229.123 160.441 229.118C160.643 229.107 160.85 229.1 161.063 229.095C161.645 229.078 162.243 229.06 162.854 229.048C164.592 229.02 166.423 229.032 168.346 229.072C169.239 229.088 170.148 229.118 171.081 229.158C171.139 229.158 171.202 229.163 171.259 229.163C172.072 229.187 172.894 229.228 173.729 229.268C174.317 229.297 174.91 229.325 175.503 229.36C176.06 229.395 176.625 229.43 177.195 229.47C177.639 229.493 178.082 229.527 178.53 229.557C178.912 229.585 179.291 229.613 179.671 229.637C180.126 229.672 180.58 229.707 181.042 229.74C181.675 229.793 182.308 229.845 182.952 229.897C183.592 229.953 184.243 230.012 184.892 230.07C185.543 230.127 186.2 230.19 186.856 230.253C186.926 230.26 186.989 230.265 187.052 230.272C187.65 230.335 188.25 230.392 188.854 230.455C192.205 230.797 195.653 231.193 199.2 231.65C201.319 231.92 203.464 232.21 205.637 232.52C208.936 232.987 212.287 233.495 215.66 234.037C219.04 234.585 222.438 235.163 225.857 235.773C226.72 235.928 227.584 236.083 228.454 236.245C229.513 236.442 230.572 236.642 231.631 236.845C232.299 236.972 232.967 237.098 233.635 237.232C234.429 237.387 235.229 237.543 236.025 237.698C241.257 238.737 246.462 239.843 251.54 241.003C252.374 241.193 253.21 241.39 254.038 241.58C255.697 241.967 257.339 242.358 258.968 242.757C259.416 242.865 259.859 242.975 260.303 243.085C261.414 243.362 262.513 243.638 263.601 243.915V243.922C263.664 243.932 263.728 243.95 263.791 243.967C264.585 244.168 265.375 244.37 266.157 244.578C268.006 245.063 269.823 245.552 271.61 246.043C272.796 246.377 273.97 246.707 275.128 247.04C276.861 247.548 278.56 248.055 280.212 248.563C280.62 248.69 281.03 248.817 281.433 248.938C282.642 249.318 283.828 249.697 284.99 250.073C285.911 250.373 286.809 250.68 287.697 250.985C288.583 251.29 289.452 251.597 290.305 251.902C290.858 252.098 291.399 252.3 291.934 252.497C292.716 252.785 293.476 253.073 294.225 253.367C294.455 253.453 294.68 253.545 294.905 253.632C295.324 253.793 295.734 253.96 296.137 254.128C296.407 254.232 296.672 254.342 296.937 254.457C297.196 254.56 297.461 254.67 297.714 254.78C297.972 254.883 298.226 254.993 298.48 255.108C298.692 255.195 298.9 255.287 299.102 255.38C299.51 255.558 299.919 255.737 300.316 255.922C300.512 256.013 300.707 256.1 300.904 256.192L301.353 256.4C301.417 256.435 301.48 256.463 301.543 256.492C302.033 256.723 302.504 256.953 302.965 257.183C303.397 257.403 303.816 257.622 304.219 257.835C304.697 258.09 305.152 258.337 305.59 258.592C305.677 258.637 305.763 258.69 305.848 258.735C306.143 258.903 306.425 259.075 306.708 259.243C307.259 259.583 307.784 259.918 308.273 260.252C308.756 260.587 309.206 260.915 309.626 261.243C309.626 261.25 309.626 261.25 309.632 261.25C309.834 261.412 310.029 261.573 310.213 261.728C310.513 261.988 310.79 262.235 311.043 262.49C311.128 262.568 311.208 262.65 311.284 262.737C311.318 262.765 311.349 262.797 311.376 262.83C311.497 262.962 311.617 263.095 311.734 263.228C311.871 263.388 311.999 263.55 312.119 263.712C312.177 263.793 312.24 263.873 312.292 263.953C312.36 264.052 312.43 264.157 312.487 264.253C312.538 264.335 312.585 264.422 312.632 264.502C312.753 264.71 312.858 264.928 312.941 265.153C313.005 265.307 313.056 265.465 313.098 265.627C313.141 265.78 313.175 265.935 313.196 266.093Z" fill="black"/>
</g>
</g>
<defs>
<clipPath id="clip0_13_2">
<rect width="453" height="330" fill="white"/>
</clipPath>
</defs>
</svg>
