<svg width="29" height="29" viewBox="0 0 29 29" fill="none" xmlns="http://www.w3.org/2000/svg">
<g clip-path="url(#clip0_14_110)">
<path d="M2.67409 18.8865H4.75394C4.86536 18.8865 4.93964 18.8122 4.93964 18.7009V7.23548C4.93964 5.97391 5.97957 4.93497 7.24233 4.93497H18.7186C18.8301 4.93497 18.9043 4.86076 18.9043 4.74944V2.67156C18.9043 1.18736 17.7159 0 16.2303 0H2.67409C1.18849 0 0 1.18736 0 2.67156V16.252C0 17.6991 1.18849 18.8865 2.67409 18.8865Z" fill="#159B9D"/>
<path d="M9.17358 23.302V25.3798C9.17358 26.864 10.3621 28.0514 11.8477 28.0514H25.441C26.9266 28.0514 28.1151 26.864 28.1151 25.3798V11.7994C28.1151 10.3152 26.9266 9.12784 25.441 9.12784H23.324C23.2126 9.12784 23.1383 9.20205 23.1383 9.31336V20.7788C23.1383 22.0404 22.0984 23.0793 20.8356 23.0793H9.35928C9.24786 23.1164 9.17358 23.1906 9.17358 23.302Z" fill="#159B9D"/>
<path d="M9.35932 18.8865H16.2674C17.753 18.8865 18.9415 17.6991 18.9415 16.2149V9.35047C18.9415 9.23916 18.8672 9.16495 18.7558 9.16495H11.8106C10.325 9.16495 9.13647 10.3523 9.13647 11.8365V18.738C9.17361 18.8123 9.2479 18.8865 9.35932 18.8865Z" fill="#159B9D"/>
</g>
<defs>
<clipPath id="clip0_14_110">
<rect width="28.1151" height="28.0514" fill="white"/>
</clipPath>
</defs>
</svg>
